HIERARCHY
ROOT Hips
{
    OFFSET   0.000000   0.000000   0.000000
    CHANNELS 6 Xposition Yposition Zposition Zrotation Xrotation Yrotation
    JOINT Chest
    {
        OFFSET   0.000000   8.007230   0.000000
        CHANNELS 3 Zrotation Xrotation Yrotation
        JOINT Chest2
        {
            OFFSET   0.000000  22.077100   0.000000
            CHANNELS 3 Zrotation Xrotation Yrotation
            JOINT Neck
            {
                OFFSET   0.000000  23.254700   0.000000
                CHANNELS 3 Zrotation Xrotation Yrotation
                JOINT Head
                {
                    OFFSET   0.000010  14.370000   1.956610
                    CHANNELS 3 Zrotation Xrotation Yrotation
                    End Site
                    {
                        OFFSET   0.000000  19.566000   0.000000
                    }
                }
            }
            JOINT LeftCollar
            {
                OFFSET   3.911900  19.017000  -0.467063
                CHANNELS 3 Zrotation Xrotation Yrotation
                JOINT LeftShoulder
                {
                    OFFSET  10.383700   0.000000   0.000000
                    CHANNELS 3 Zrotation Xrotation Yrotation
                    JOINT LeftElbow
                    {
                        OFFSET  26.662100   0.001671   0.000522
                        CHANNELS 3 Zrotation Xrotation Yrotation
                        JOINT LeftWrist
                        {
                            OFFSET  28.869000   0.000037  -0.000114
                            CHANNELS 3 Zrotation Xrotation Yrotation
                            JOINT LeftFinger0
                            {
                                OFFSET   2.044650  -2.323450   3.252850
                                CHANNELS 3 Zrotation Xrotation Yrotation
                                JOINT LeftFinger01
                                {
                                    OFFSET   3.088140   0.000000   0.000000
                                    CHANNELS 3 Zrotation Xrotation Yrotation
                                    JOINT LeftFinger02
                                    {
                                        OFFSET   2.639460   0.000000   0.000000
                                        CHANNELS 3 Zrotation Xrotation Yrotation
                                        End Site
                                        {
                                            OFFSET   2.582190   0.000000   0.000000
                                        }
                                    }
                                }
                            }
                            JOINT LeftFinger1
                            {
                                OFFSET   8.364480   0.000000   3.252850
                                CHANNELS 3 Zrotation Xrotation Yrotation
                                JOINT LeftFinger11
                                {
                                    OFFSET   4.646930   0.000000   0.000000
                                    CHANNELS 3 Zrotation Xrotation Yrotation
                                    JOINT LeftFinger12
                                    {
                                        OFFSET   2.323470   0.000000   0.000000
                                        CHANNELS 3 Zrotation Xrotation Yrotation
                                        End Site
                                        {
                                            OFFSET   2.273050   0.000000   0.000000
                                        }
                                    }
                                }
                            }
                            JOINT LeftFinger2
                            {
                                OFFSET   8.364490   0.000016   1.078090
                                CHANNELS 3 Zrotation Xrotation Yrotation
                                JOINT LeftFinger21
                                {
                                    OFFSET   5.111620   0.000000   0.000000
                                    CHANNELS 3 Zrotation Xrotation Yrotation
                                    JOINT LeftFinger22
                                    {
                                        OFFSET   2.788150   0.000013   0.000000
                                        CHANNELS 3 Zrotation Xrotation Yrotation
                                        End Site
                                        {
                                            OFFSET   2.727660   0.000000   0.000000
                                        }
                                    }
                                }
                            }
                            JOINT LeftFinger3
                            {
                                OFFSET   7.899780   0.000016  -1.078090
                                CHANNELS 3 Zrotation Xrotation Yrotation
                                JOINT LeftFinger31
                                {
                                    OFFSET   4.646930   0.000000   0.000000
                                    CHANNELS 3 Zrotation Xrotation Yrotation
                                    JOINT LeftFinger32
                                    {
                                        OFFSET   2.323470   0.000000   0.000000
                                        CHANNELS 3 Zrotation Xrotation Yrotation
                                        End Site
                                        {
                                            OFFSET   2.273050   0.000000   0.000000
                                        }
                                    }
                                }
                            }
                            JOINT LeftFinger4
                            {
                                OFFSET   7.435080   0.000000  -3.252850
                                CHANNELS 3 Zrotation Xrotation Yrotation
                                JOINT LeftFinger41
                                {
                                    OFFSET   3.717550   0.000000   0.000000
                                    CHANNELS 3 Zrotation Xrotation Yrotation
                                    JOINT LeftFinger42
                                    {
                                        OFFSET   1.858760   0.000000   0.000000
                                        CHANNELS 3 Zrotation Xrotation Yrotation
                                        End Site
                                        {
                                            OFFSET   1.818440   0.000000   0.000000
                                        }
                                    }
                                }
                            }
                        }
                    }
                }
            }
            JOINT RightCollar
            {
                OFFSET  -3.911900  19.017000  -0.467064
                CHANNELS 3 Zrotation Xrotation Yrotation
                JOINT RightShoulder
                {
                    OFFSET -10.383700   0.000000   0.000000
                    CHANNELS 3 Zrotation Xrotation Yrotation
                    JOINT RightElbow
                    {
                        OFFSET -26.662100   0.001633   0.000260
                        CHANNELS 3 Zrotation Xrotation Yrotation
                        JOINT RightWrist
                        {
                            OFFSET -28.869000  -0.000045  -0.000080
                            CHANNELS 3 Zrotation Xrotation Yrotation
                            JOINT RightFinger0
                            {
                                OFFSET  -2.044660  -2.323490   3.252850
                                CHANNELS 3 Zrotation Xrotation Yrotation
                                JOINT RightFinger01
                                {
                                    OFFSET  -3.088140   0.000000   0.000000
                                    CHANNELS 3 Zrotation Xrotation Yrotation
                                    JOINT RightFinger02
                                    {
                                        OFFSET  -2.639450   0.000000   0.000000
                                        CHANNELS 3 Zrotation Xrotation Yrotation
                                        End Site
                                        {
                                            OFFSET  -2.582190   0.000000   0.000000
                                        }
                                    }
                                }
                            }
                            JOINT RightFinger1
                            {
                                OFFSET  -8.364480   0.000000   3.252850
                                CHANNELS 3 Zrotation Xrotation Yrotation
                                JOINT RightFinger11
                                {
                                    OFFSET  -4.646920   0.000000   0.000000
                                    CHANNELS 3 Zrotation Xrotation Yrotation
                                    JOINT RightFinger12
                                    {
                                        OFFSET  -2.323470   0.000000   0.000000
                                        CHANNELS 3 Zrotation Xrotation Yrotation
                                        End Site
                                        {
                                            OFFSET  -2.273050   0.000000   0.000000
                                        }
                                    }
                                }
                            }
                            JOINT RightFinger2
                            {
                                OFFSET  -8.364480   0.000000   1.078090
                                CHANNELS 3 Zrotation Xrotation Yrotation
                                JOINT RightFinger21
                                {
                                    OFFSET  -5.111610   0.000000   0.000000
                                    CHANNELS 3 Zrotation Xrotation Yrotation
                                    JOINT RightFinger22
                                    {
                                        OFFSET  -2.788160   0.000000   0.000000
                                        CHANNELS 3 Zrotation Xrotation Yrotation
                                        End Site
                                        {
                                            OFFSET  -2.727660   0.000000   0.000000
                                        }
                                    }
                                }
                            }
                            JOINT RightFinger3
                            {
                                OFFSET  -7.899780   0.000000  -1.078090
                                CHANNELS 3 Zrotation Xrotation Yrotation
                                JOINT RightFinger31
                                {
                                    OFFSET  -4.646930   0.000000   0.000000
                                    CHANNELS 3 Zrotation Xrotation Yrotation
                                    JOINT RightFinger32
                                    {
                                        OFFSET  -2.323470   0.000000   0.000000
                                        CHANNELS 3 Zrotation Xrotation Yrotation
                                        End Site
                                        {
                                            OFFSET  -2.273050   0.000000   0.000000
                                        }
                                    }
                                }
                            }
                            JOINT RightFinger4
                            {
                                OFFSET  -7.435090   0.000000  -3.252850
                                CHANNELS 3 Zrotation Xrotation Yrotation
                                JOINT RightFinger41
                                {
                                    OFFSET  -3.717550   0.000000   0.000000
                                    CHANNELS 3 Zrotation Xrotation Yrotation
                                    JOINT RightFinger42
                                    {
                                        OFFSET  -1.858760   0.000000   0.000000
                                        CHANNELS 3 Zrotation Xrotation Yrotation
                                        End Site
                                        {
                                            OFFSET  -1.818440   0.000000   0.000000
                                        }
                                    }
                                }
                            }
                        }
                    }
                }
            }
        }
    }
    JOINT LeftHip
    {
        OFFSET   9.782990   0.000000   0.000000
        CHANNELS 3 Zrotation Xrotation Yrotation
        JOINT LeftKnee
        {
            OFFSET  -0.000063 -41.789100   0.001657
            CHANNELS 3 Zrotation Xrotation Yrotation
            JOINT LeftAnkle
            {
                OFFSET   0.000078 -41.133200  -0.000113
                CHANNELS 3 Zrotation Xrotation Yrotation
                JOINT LeftToe
                {
                    OFFSET   0.000000  -6.358970  14.674500
                    CHANNELS 3 Zrotation Xrotation Yrotation
                    End Site
                    {
                        OFFSET   0.000000   0.000000   3.913200
                    }
                }
            }
        }
    }
    JOINT RightHip
    {
        OFFSET  -9.782990   0.000000   0.000000
        CHANNELS 3 Zrotation Xrotation Yrotation
        JOINT RightKnee
        {
            OFFSET   0.000053 -41.789200   0.000277
            CHANNELS 3 Zrotation Xrotation Yrotation
            JOINT RightAnkle
            {
                OFFSET   0.000030 -41.133200  -0.000150
                CHANNELS 3 Zrotation Xrotation Yrotation
                JOINT RightToe
                {
                    OFFSET   0.000000  -6.358960  14.674500
                    CHANNELS 3 Zrotation Xrotation Yrotation
                    End Site
                    {
                        OFFSET   0.000000   0.000000   3.913200
                    }
                }
            }
        }
    }
}
MOTION
Frames: 4
Frame Time:   0.016667
 -0.017853  89.619400  -0.103579  -2.678170  -8.598080  -1.140670   1.392740   5.352820  -1.019590   2.900450  10.678200  -2.184540   1.543760  -1.270270   0.030515   2.539630  -2.570470   4.393920  -6.146560  -1.878060   2.033500 -73.852600  18.128000   2.206670  -3.578410  -8.796730 -14.431500  10.197000 -14.793300   0.746846  36.623300  20.986800 -62.791500 -22.487200   0.002916   0.001278  -6.245110   0.001400   0.005107 -20.772100   2.735120  -7.171580 -17.135800  -0.002298  -0.001234 -11.995100  -0.005020  -0.002100 -25.468200   1.718630  -3.593170 -25.522300  -0.002272   0.001739 -16.997800  -0.001285   0.000367 -19.994900   0.815732  -2.225060 -20.010800   0.001128  -0.000653 -13.328400   0.000934  -0.000823 -22.759200   0.189278  -0.435355 -34.131900   0.002089  -0.001619 -22.737100   0.001868  -0.000403   8.442760   0.207331   8.273210  70.448900  15.538700  -3.900630  -1.569050  -5.286060  12.510400 -13.146500 -15.005000  -3.520940 -39.228200  20.114500  56.217500  20.578400  -0.005930  -0.001698   5.290620   0.015241  -0.001135  23.414400   3.017850   6.930540  19.306900   0.001579  -0.007804  13.523000  -0.000601  -0.005804  27.942000   1.182270   2.226870  31.831200  -0.004278   0.003891  21.199600  -0.003165   0.004051  24.204100   1.034180   2.299360  24.224800  -0.003007   0.003782  16.142500  -0.003407   0.004295  29.625400   1.246860   2.191370  44.473900   0.002795   0.007614  29.619600  -0.001424   0.007964   2.607900   9.858180   7.352670   1.585930   0.002091  10.993400  -1.950860  -2.084780   3.386160   0.000000   0.000000  -0.000000   3.834050   8.159750   0.560761  -0.856851   3.073120 -10.291600  -0.389278  -4.133730  -0.984453   0.000000   0.000000   0.000000
 -0.022104  89.619400  -0.108093  -2.678250  -8.605520  -1.140210   1.392760   5.357710  -1.020690   2.900720  10.687900  -2.186920   1.535710  -1.260990   0.030521   2.526260  -2.551880   4.411100  -6.146580  -1.878280   2.033500 -73.847100  18.131800   2.206800  -3.584200  -8.802650 -14.426300  10.179400 -14.786100   0.746818  36.628500  20.987400 -62.785700 -22.487200   0.002925   0.001281  -6.244720   0.001406   0.005107 -20.761500   2.732640  -7.168580 -17.126900  -0.002296  -0.001232 -11.988900  -0.005016  -0.002099 -25.457200   1.715430  -3.592410 -25.511100  -0.002271   0.001742 -16.990400  -0.001284   0.000368 -19.989500   0.813643  -2.224910 -20.005400   0.001130  -0.000652 -13.324000   0.000933  -0.000820 -22.753200   0.188267  -0.438931 -34.126900   0.002089  -0.001617 -22.731100   0.001870  -0.000401   8.442710   0.207382   8.277740  70.435500  15.545000  -3.900370  -1.568260  -5.285600  12.519700 -13.139400 -14.998300  -3.521390 -39.230100  20.120000  56.219700  20.578400  -0.005932  -0.001703   5.290330   0.015242  -0.001133  23.415700   3.016140   6.926320  19.307800   0.001574  -0.007806  13.520800  -0.000601  -0.005806  27.942400   1.176950   2.216850  31.829600  -0.004277   0.003887  21.198500  -0.003168   0.004049  24.204100   1.029570   2.289000  24.224500  -0.003006   0.003776  16.139200  -0.003410   0.004293  29.630000   1.241460   2.181390  44.480700   0.002795   0.007610  29.624100  -0.001428   0.007963   2.614330   9.860700   7.350840   1.584950   0.002169  10.993700  -1.950260  -2.083510   3.386370   0.000000   0.000000  -0.000000   3.840330   8.160590   0.555658  -0.858714   3.078760 -10.291600  -0.393496  -4.133600  -0.984445   0.000000   0.000000   0.000000
 -0.030051  89.619400  -0.116140  -2.678290  -8.619220  -1.138730   1.392820   5.366900  -1.023070   2.901310  10.706300  -2.192000   1.521550  -1.250020   0.030532   2.503000  -2.529810   4.438210  -6.146620  -1.878500   2.033510 -73.838500  18.138700   2.207030  -3.594290  -8.811970 -14.418200  10.159100 -14.776200   0.746781  36.635600  20.981700 -62.770200 -22.487200   0.002938   0.001288  -6.244330   0.001412   0.005106 -20.745700   2.727980  -7.161730 -17.113500  -0.002290  -0.001228 -11.979500  -0.005009  -0.002097 -25.440400   1.708880  -3.587120 -25.493900  -0.002268   0.001749 -16.979000  -0.001282   0.000372 -19.982200   0.809078  -2.223880 -19.998000   0.001134  -0.000650 -13.318600   0.000932  -0.000815 -22.747300   0.185544  -0.442508 -34.122000   0.002089  -0.001612 -22.725200   0.001876  -0.000397   8.442650   0.207479   8.284840  70.413200  15.554600  -3.897940  -1.567120  -5.285060  12.533400 -13.130000 -14.988500  -3.525130 -39.230700  20.127500  56.218000  20.578400  -0.005941  -0.001710   5.290040   0.015246  -0.001130  23.417400   3.012410   6.918440  19.308700   0.001559  -0.007812  13.516100  -0.000603  -0.005812  27.943000   1.168080   2.200260  31.821000  -0.004274   0.003874  21.192800  -0.003177   0.004042  24.202000   1.021730   2.271900  24.222300  -0.003000   0.003763  16.132000  -0.003417   0.004285  29.634900   1.232300   2.164960  44.487400   0.002796   0.007597  29.628500  -0.001438   0.007959   2.623530   9.866590   7.347730   1.583980   0.002246  10.994100  -1.949800  -2.080130   3.386580  -0.000000   0.000000  -0.000000   3.853210   8.161440   0.547583  -0.864064   3.089620 -10.291700  -0.400279  -4.133390  -0.984437  -0.000000   0.000000  -0.000000
 -0.038198  89.619300  -0.123578  -2.678140  -8.632980  -1.136030   1.392980   5.376350  -1.026230   2.902170  10.725100  -2.198660   1.509170  -1.248050   0.030545   2.482840  -2.525720   4.456960  -6.146650  -1.878440   2.034480 -73.832600  18.146100   2.207260  -3.603440  -8.818020 -14.414100  10.157900 -14.772800   0.750419  36.639800  20.961600 -62.741100 -22.492200   0.002949   0.001305  -6.246510   0.001411   0.005097 -20.734800   2.723050  -7.152560 -17.104200  -0.002280  -0.001226 -11.973000  -0.005002  -0.002094 -25.429800   1.700710  -3.572500 -25.482800  -0.002261   0.001756 -16.971600  -0.001281   0.000383 -19.979600   0.802829  -2.209910 -19.995200   0.001141  -0.000645 -13.317500   0.000938  -0.000810 -22.747600   0.181188  -0.434169 -34.122400   0.002088  -0.001608 -22.725500   0.001884  -0.000388   8.442620   0.207612   8.290140  70.394000  15.559700  -3.889940  -1.566540  -5.284960  12.541200 -13.128600 -14.982300  -3.539660 -39.233300  20.128700  56.191700  20.582100  -0.005956  -0.001718   5.291510   0.015254  -0.001134  23.406600   3.007020   6.909530  19.299500   0.001533  -0.007823  13.508400  -0.000604  -0.005821  27.943600   1.160810   2.186940  31.794700  -0.004271   0.003853  21.175300  -0.003189   0.004029  24.185800   1.014860   2.258350  24.206000  -0.002991   0.003744  16.119900  -0.003428   0.004274  29.623200   1.224310   2.152040  44.469400   0.002800   0.007572  29.616600  -0.001455   0.007953   2.627200   9.875370   7.344860   1.586540   0.000726  10.994100  -1.951230  -2.074830   3.386190   0.000000   0.000000  -0.000000   3.869140   8.161060   0.540799  -0.873582   3.101130 -10.289500  -0.406024  -4.133260  -0.989134  -0.000000   0.000000  -0.000000
